<mxfile host="app.diagrams.net" modified="2023-06-06T14:25:00.494Z" agent="Mozilla/5.0 (Windows NT 10.0; Win64; x64) AppleWebKit/537.36 (KHTML, like Gecko) Chrome/114.0.0.0 Safari/537.36 Edg/114.0.1823.37" etag="CAxTVvLkKijCJuu1c59J" version="21.3.7" type="device">
  <diagram name="Страница 1" id="axGKU7OoaeToMdGSZp_Q">
    <mxGraphModel dx="2206" dy="756" grid="1" gridSize="10" guides="1" tooltips="1" connect="1" arrows="1" fold="1" page="1" pageScale="1" pageWidth="827" pageHeight="1169" math="0" shadow="0">
      <root>
        <mxCell id="0" />
        <mxCell id="1" parent="0" />
        <mxCell id="nCnjXsVWTtZFX6629xR4-1" value="Сдатчик" style="swimlane;startSize=20;whiteSpace=wrap;html=1;" vertex="1" parent="1">
          <mxGeometry x="-130" y="200" width="250" height="740" as="geometry" />
        </mxCell>
        <mxCell id="nCnjXsVWTtZFX6629xR4-6" style="edgeStyle=orthogonalEdgeStyle;rounded=0;orthogonalLoop=1;jettySize=auto;html=1;entryX=0.5;entryY=0;entryDx=0;entryDy=0;entryPerimeter=0;" edge="1" parent="nCnjXsVWTtZFX6629xR4-1" source="nCnjXsVWTtZFX6629xR4-4" target="nCnjXsVWTtZFX6629xR4-5">
          <mxGeometry relative="1" as="geometry" />
        </mxCell>
        <mxCell id="nCnjXsVWTtZFX6629xR4-4" value="" style="points=[[0.145,0.145,0],[0.5,0,0],[0.855,0.145,0],[1,0.5,0],[0.855,0.855,0],[0.5,1,0],[0.145,0.855,0],[0,0.5,0]];shape=mxgraph.bpmn.event;html=1;verticalLabelPosition=bottom;labelBackgroundColor=#ffffff;verticalAlign=top;align=center;perimeter=ellipsePerimeter;outlineConnect=0;aspect=fixed;outline=standard;symbol=general;" vertex="1" parent="nCnjXsVWTtZFX6629xR4-1">
          <mxGeometry x="100" y="40" width="50" height="50" as="geometry" />
        </mxCell>
        <mxCell id="nCnjXsVWTtZFX6629xR4-5" value="Принести товар" style="points=[[0.25,0,0],[0.5,0,0],[0.75,0,0],[1,0.25,0],[1,0.5,0],[1,0.75,0],[0.75,1,0],[0.5,1,0],[0.25,1,0],[0,0.75,0],[0,0.5,0],[0,0.25,0]];shape=mxgraph.bpmn.task;whiteSpace=wrap;rectStyle=rounded;size=10;html=1;container=1;expand=0;collapsible=0;taskMarker=abstract;" vertex="1" parent="nCnjXsVWTtZFX6629xR4-1">
          <mxGeometry x="65" y="120" width="120" height="80" as="geometry" />
        </mxCell>
        <mxCell id="nCnjXsVWTtZFX6629xR4-15" value="" style="points=[[0.145,0.145,0],[0.5,0,0],[0.855,0.145,0],[1,0.5,0],[0.855,0.855,0],[0.5,1,0],[0.145,0.855,0],[0,0.5,0]];shape=mxgraph.bpmn.event;html=1;verticalLabelPosition=bottom;labelBackgroundColor=#ffffff;verticalAlign=top;align=center;perimeter=ellipsePerimeter;outlineConnect=0;aspect=fixed;outline=end;symbol=terminate2;" vertex="1" parent="nCnjXsVWTtZFX6629xR4-1">
          <mxGeometry x="100" y="305" width="50" height="50" as="geometry" />
        </mxCell>
        <mxCell id="nCnjXsVWTtZFX6629xR4-2" value="Заготовщик" style="swimlane;startSize=20;whiteSpace=wrap;html=1;" vertex="1" parent="1">
          <mxGeometry x="120" y="200" width="620" height="740" as="geometry" />
        </mxCell>
        <mxCell id="nCnjXsVWTtZFX6629xR4-12" style="edgeStyle=orthogonalEdgeStyle;rounded=0;orthogonalLoop=1;jettySize=auto;html=1;" edge="1" parent="nCnjXsVWTtZFX6629xR4-2" source="nCnjXsVWTtZFX6629xR4-7" target="nCnjXsVWTtZFX6629xR4-11">
          <mxGeometry relative="1" as="geometry" />
        </mxCell>
        <mxCell id="nCnjXsVWTtZFX6629xR4-7" value="Проверить товар" style="points=[[0.25,0,0],[0.5,0,0],[0.75,0,0],[1,0.25,0],[1,0.5,0],[1,0.75,0],[0.75,1,0],[0.5,1,0],[0.25,1,0],[0,0.75,0],[0,0.5,0],[0,0.25,0]];shape=mxgraph.bpmn.task;whiteSpace=wrap;rectStyle=rounded;size=10;html=1;container=1;expand=0;collapsible=0;taskMarker=abstract;" vertex="1" parent="nCnjXsVWTtZFX6629xR4-2">
          <mxGeometry x="366" y="120" width="120" height="80" as="geometry" />
        </mxCell>
        <mxCell id="nCnjXsVWTtZFX6629xR4-28" style="edgeStyle=orthogonalEdgeStyle;rounded=0;orthogonalLoop=1;jettySize=auto;html=1;entryX=1;entryY=0.5;entryDx=0;entryDy=0;entryPerimeter=0;" edge="1" parent="nCnjXsVWTtZFX6629xR4-2" source="nCnjXsVWTtZFX6629xR4-9" target="nCnjXsVWTtZFX6629xR4-27">
          <mxGeometry relative="1" as="geometry" />
        </mxCell>
        <mxCell id="nCnjXsVWTtZFX6629xR4-9" value="Отклонить товар" style="points=[[0.25,0,0],[0.5,0,0],[0.75,0,0],[1,0.25,0],[1,0.5,0],[1,0.75,0],[0.75,1,0],[0.5,1,0],[0.25,1,0],[0,0.75,0],[0,0.5,0],[0,0.25,0]];shape=mxgraph.bpmn.task;whiteSpace=wrap;rectStyle=rounded;size=10;html=1;container=1;expand=0;collapsible=0;taskMarker=abstract;" vertex="1" parent="nCnjXsVWTtZFX6629xR4-2">
          <mxGeometry x="260" y="290" width="120" height="80" as="geometry" />
        </mxCell>
        <mxCell id="nCnjXsVWTtZFX6629xR4-18" style="edgeStyle=orthogonalEdgeStyle;rounded=0;orthogonalLoop=1;jettySize=auto;html=1;entryX=0.5;entryY=0;entryDx=0;entryDy=0;entryPerimeter=0;" edge="1" parent="nCnjXsVWTtZFX6629xR4-2" source="nCnjXsVWTtZFX6629xR4-10" target="nCnjXsVWTtZFX6629xR4-17">
          <mxGeometry relative="1" as="geometry" />
        </mxCell>
        <mxCell id="nCnjXsVWTtZFX6629xR4-10" value="Принять товар" style="points=[[0.25,0,0],[0.5,0,0],[0.75,0,0],[1,0.25,0],[1,0.5,0],[1,0.75,0],[0.75,1,0],[0.5,1,0],[0.25,1,0],[0,0.75,0],[0,0.5,0],[0,0.25,0]];shape=mxgraph.bpmn.task;whiteSpace=wrap;rectStyle=rounded;size=10;html=1;container=1;expand=0;collapsible=0;taskMarker=abstract;" vertex="1" parent="nCnjXsVWTtZFX6629xR4-2">
          <mxGeometry x="456" y="290" width="120" height="80" as="geometry" />
        </mxCell>
        <mxCell id="nCnjXsVWTtZFX6629xR4-13" style="edgeStyle=orthogonalEdgeStyle;rounded=0;orthogonalLoop=1;jettySize=auto;html=1;entryX=0.5;entryY=0;entryDx=0;entryDy=0;entryPerimeter=0;" edge="1" parent="nCnjXsVWTtZFX6629xR4-2" source="nCnjXsVWTtZFX6629xR4-11" target="nCnjXsVWTtZFX6629xR4-9">
          <mxGeometry relative="1" as="geometry" />
        </mxCell>
        <mxCell id="nCnjXsVWTtZFX6629xR4-14" style="edgeStyle=orthogonalEdgeStyle;rounded=0;orthogonalLoop=1;jettySize=auto;html=1;entryX=0.5;entryY=0;entryDx=0;entryDy=0;entryPerimeter=0;" edge="1" parent="nCnjXsVWTtZFX6629xR4-2" source="nCnjXsVWTtZFX6629xR4-11" target="nCnjXsVWTtZFX6629xR4-10">
          <mxGeometry relative="1" as="geometry" />
        </mxCell>
        <mxCell id="nCnjXsVWTtZFX6629xR4-11" value="" style="points=[[0.25,0.25,0],[0.5,0,0],[0.75,0.25,0],[1,0.5,0],[0.75,0.75,0],[0.5,1,0],[0.25,0.75,0],[0,0.5,0]];shape=mxgraph.bpmn.gateway2;html=1;verticalLabelPosition=bottom;labelBackgroundColor=#ffffff;verticalAlign=top;align=center;perimeter=rhombusPerimeter;outlineConnect=0;outline=none;symbol=none;" vertex="1" parent="nCnjXsVWTtZFX6629xR4-2">
          <mxGeometry x="401" y="220" width="50" height="50" as="geometry" />
        </mxCell>
        <mxCell id="nCnjXsVWTtZFX6629xR4-20" style="edgeStyle=orthogonalEdgeStyle;rounded=0;orthogonalLoop=1;jettySize=auto;html=1;entryX=1;entryY=0.5;entryDx=0;entryDy=0;" edge="1" parent="nCnjXsVWTtZFX6629xR4-2" source="nCnjXsVWTtZFX6629xR4-17" target="nCnjXsVWTtZFX6629xR4-19">
          <mxGeometry relative="1" as="geometry" />
        </mxCell>
        <mxCell id="nCnjXsVWTtZFX6629xR4-23" style="edgeStyle=orthogonalEdgeStyle;rounded=0;orthogonalLoop=1;jettySize=auto;html=1;entryX=0.5;entryY=0;entryDx=0;entryDy=0;entryPerimeter=0;" edge="1" parent="nCnjXsVWTtZFX6629xR4-2" source="nCnjXsVWTtZFX6629xR4-17" target="nCnjXsVWTtZFX6629xR4-22">
          <mxGeometry relative="1" as="geometry" />
        </mxCell>
        <mxCell id="nCnjXsVWTtZFX6629xR4-17" value="Занести товар в базу данных" style="points=[[0.25,0,0],[0.5,0,0],[0.75,0,0],[1,0.25,0],[1,0.5,0],[1,0.75,0],[0.75,1,0],[0.5,1,0],[0.25,1,0],[0,0.75,0],[0,0.5,0],[0,0.25,0]];shape=mxgraph.bpmn.task;whiteSpace=wrap;rectStyle=rounded;size=10;html=1;container=1;expand=0;collapsible=0;taskMarker=abstract;" vertex="1" parent="nCnjXsVWTtZFX6629xR4-2">
          <mxGeometry x="456" y="420" width="120" height="80" as="geometry" />
        </mxCell>
        <mxCell id="nCnjXsVWTtZFX6629xR4-19" value="raw" style="shape=datastore;html=1;labelPosition=center;verticalLabelPosition=bottom;align=center;verticalAlign=top;" vertex="1" parent="nCnjXsVWTtZFX6629xR4-2">
          <mxGeometry x="301" y="410" width="100" height="100" as="geometry" />
        </mxCell>
        <mxCell id="nCnjXsVWTtZFX6629xR4-22" value="Ввести данные для отчета" style="points=[[0.25,0,0],[0.5,0,0],[0.75,0,0],[1,0.25,0],[1,0.5,0],[1,0.75,0],[0.75,1,0],[0.5,1,0],[0.25,1,0],[0,0.75,0],[0,0.5,0],[0,0.25,0]];shape=mxgraph.bpmn.task;whiteSpace=wrap;rectStyle=rounded;size=10;html=1;container=1;expand=0;collapsible=0;taskMarker=abstract;" vertex="1" parent="nCnjXsVWTtZFX6629xR4-2">
          <mxGeometry x="456" y="560" width="120" height="80" as="geometry" />
        </mxCell>
        <mxCell id="nCnjXsVWTtZFX6629xR4-27" value="Уведомить сдатчика" style="points=[[0.25,0,0],[0.5,0,0],[0.75,0,0],[1,0.25,0],[1,0.5,0],[1,0.75,0],[0.75,1,0],[0.5,1,0],[0.25,1,0],[0,0.75,0],[0,0.5,0],[0,0.25,0]];shape=mxgraph.bpmn.task;whiteSpace=wrap;rectStyle=rounded;size=10;html=1;container=1;expand=0;collapsible=0;taskMarker=abstract;" vertex="1" parent="nCnjXsVWTtZFX6629xR4-2">
          <mxGeometry x="60" y="290" width="120" height="80" as="geometry" />
        </mxCell>
        <mxCell id="nCnjXsVWTtZFX6629xR4-3" value="Система" style="swimlane;startSize=20;whiteSpace=wrap;html=1;" vertex="1" parent="1">
          <mxGeometry x="740" y="200" width="360" height="740" as="geometry" />
        </mxCell>
        <mxCell id="nCnjXsVWTtZFX6629xR4-26" style="edgeStyle=orthogonalEdgeStyle;rounded=0;orthogonalLoop=1;jettySize=auto;html=1;entryX=0.5;entryY=0;entryDx=0;entryDy=0;entryPerimeter=0;" edge="1" parent="nCnjXsVWTtZFX6629xR4-3" source="nCnjXsVWTtZFX6629xR4-21" target="nCnjXsVWTtZFX6629xR4-25">
          <mxGeometry relative="1" as="geometry" />
        </mxCell>
        <mxCell id="nCnjXsVWTtZFX6629xR4-21" value="Создать отчет" style="points=[[0.25,0,0],[0.5,0,0],[0.75,0,0],[1,0.25,0],[1,0.5,0],[1,0.75,0],[0.75,1,0],[0.5,1,0],[0.25,1,0],[0,0.75,0],[0,0.5,0],[0,0.25,0]];shape=mxgraph.bpmn.task;whiteSpace=wrap;rectStyle=rounded;size=10;html=1;container=1;expand=0;collapsible=0;taskMarker=abstract;" vertex="1" parent="nCnjXsVWTtZFX6629xR4-3">
          <mxGeometry x="130" y="560" width="120" height="80" as="geometry" />
        </mxCell>
        <mxCell id="nCnjXsVWTtZFX6629xR4-25" value="" style="points=[[0.145,0.145,0],[0.5,0,0],[0.855,0.145,0],[1,0.5,0],[0.855,0.855,0],[0.5,1,0],[0.145,0.855,0],[0,0.5,0]];shape=mxgraph.bpmn.event;html=1;verticalLabelPosition=bottom;labelBackgroundColor=#ffffff;verticalAlign=top;align=center;perimeter=ellipsePerimeter;outlineConnect=0;aspect=fixed;outline=end;symbol=terminate2;" vertex="1" parent="nCnjXsVWTtZFX6629xR4-3">
          <mxGeometry x="165" y="670" width="50" height="50" as="geometry" />
        </mxCell>
        <mxCell id="nCnjXsVWTtZFX6629xR4-8" style="edgeStyle=orthogonalEdgeStyle;rounded=0;orthogonalLoop=1;jettySize=auto;html=1;" edge="1" parent="1" source="nCnjXsVWTtZFX6629xR4-5" target="nCnjXsVWTtZFX6629xR4-7">
          <mxGeometry relative="1" as="geometry" />
        </mxCell>
        <mxCell id="nCnjXsVWTtZFX6629xR4-24" style="edgeStyle=orthogonalEdgeStyle;rounded=0;orthogonalLoop=1;jettySize=auto;html=1;entryX=0;entryY=0.5;entryDx=0;entryDy=0;entryPerimeter=0;" edge="1" parent="1" source="nCnjXsVWTtZFX6629xR4-22" target="nCnjXsVWTtZFX6629xR4-21">
          <mxGeometry relative="1" as="geometry" />
        </mxCell>
        <mxCell id="nCnjXsVWTtZFX6629xR4-29" style="edgeStyle=orthogonalEdgeStyle;rounded=0;orthogonalLoop=1;jettySize=auto;html=1;entryX=1;entryY=0.5;entryDx=0;entryDy=0;entryPerimeter=0;" edge="1" parent="1" source="nCnjXsVWTtZFX6629xR4-27" target="nCnjXsVWTtZFX6629xR4-15">
          <mxGeometry relative="1" as="geometry" />
        </mxCell>
      </root>
    </mxGraphModel>
  </diagram>
</mxfile>
